# xmcd
#
# Track frame offsets:
# 150
# 11303
# 20138
# 33608
# 45125
# 57655
# 66043
# 76675
# 86160
# 95468
# 105760
# 129693
# 144220
# 155718
# 167533
# 178995
# 186895
# 197705
# 212260
# 222498
# 233630
# 236070
# 246460
# 250178
# 258698
#
# Disc length: 3456 seconds
#
# Revision: 0
# Processed by: cddbd v1.5.1PL0 Copyright (c) Steve Scherf et al.
# Submitted via: Audion 3.0.2 (http://www.panic.com/audion/)
#
DISCID=5a0d7e19
DTITLE=Juke Box Treasures - New York' Best Loved Doo-wop Oldies,V.1
DYEAR=1900
DGENRE=
TTITLE0=Here In My Heart-Timetones
TTITLE1=Let Me tell You-Nutmegs
TTITLE2=Sunday Kind of Love-Harptones
TTITLE3=Chain of Broken Hearts-Camelots
TTITLE4=The Vows of Love-Paragons
TTITLE5=It's gonna be All right-Decoys
TTITLE6=Hong Kong-Quinns
TTITLE7=Lonely Way(I'l go my ..)-Zircons
TTITLE8=The Beating of My Heart-Noble-Tones
TTITLE9=My Promise To You-Capris
TTITLE10=The Voice-Scarlets
TTITLE11=My Memories of you(1954)-Harptones
TTITLE12=The Night-Velvet Satins
TTITLE13=Love No One But You-Jesters
TTITLE14=Crime Don't Pay-Nobles
TTITLE15=Imagination-Quotations
TTITLE16=My Imagination-Fascinations
TTITLE17=My Memories of You(unreleased 1957)-Harptones
TTITLE18=Oh What A Dream(unissued)-Shells
TTITLE19=The Stars-Ocapellos
TTITLE20=bonus 1
TTITLE21=bonus 2
TTITLE22=bonus 3
TTITLE23=bonus 4
TTITLE24=bonus
EXTD=
EXTT0=
EXTT1=
EXTT2=
EXTT3=
EXTT4=
EXTT5=
EXTT6=
EXTT7=
EXTT8=
EXTT9=
EXTT10=
EXTT11=
EXTT12=
EXTT13=
EXTT14=
EXTT15=
EXTT16=
EXTT17=
EXTT18=
EXTT19=
EXTT20=
EXTT21=
EXTT22=
EXTT23=
EXTT24=
PLAYORDER=
